<svg xmlns="http://www.w3.org/2000/svg" xmlns:xlink="http://www.w3.org/1999/xlink" width="50.089" height="50.079" viewBox="0 0 50.089 50.079"><defs><style>.a{fill:#fff;}.b{clip-path:url(#a);}</style><clipPath id="a"><rect class="a" width="50.089" height="50.079"/></clipPath></defs><g transform="translate(0 0)"><g class="b" transform="translate(0 0)"><path class="a" d="M49.579,22.618a5.882,5.882,0,0,0-1.316-1.83Q41.229,13.723,34.174,6.682L31.21,3.722l-.744-.738c-.48-.47-.961-.941-1.421-1.428A5.475,5.475,0,0,0,25.039,0a5.389,5.389,0,0,0-2.521.575,7.321,7.321,0,0,0-1.675,1.248q-8.014,7.988-16,15.987L1.879,20.774a6.968,6.968,0,0,0-.508.541A5.549,5.549,0,0,0,.35,26.905,5.455,5.455,0,0,0,4.616,30.6a4.652,4.652,0,0,0,.477.074V33.96l0,9.457a6.446,6.446,0,0,0,6.645,6.659H18.83a2.8,2.8,0,0,0,3.038-3.052V36.376c0-.829.355-1.184,1.181-1.188h.217l1.13,0,1.15.007c.508,0,1.015,0,1.523-.02h0a1.189,1.189,0,0,1,.89.311,1.3,1.3,0,0,1,.328.937c-.041,2.619-.034,5.238-.024,7.86l.007,2.856A2.777,2.777,0,0,0,31.2,50.075h3.59c1.228,0,2.46,0,3.688-.007a6.762,6.762,0,0,0,1.59-.179,6.442,6.442,0,0,0,4.98-6.358q.01-4.832,0-9.66V30.685A5.62,5.62,0,0,0,49.2,28.133a5.886,5.886,0,0,0,.376-5.515M5.787,25.241c-.21,0-.223-.03-.274-.149-.041-.1-.058-.139.1-.3L6.805,23.6l.643-.643L13.2,17.212l11.5-11.5a1.133,1.133,0,0,1,.379-.288,1.482,1.482,0,0,1,.379.3l4.706,4.706L44.287,24.544c.321.321.355.433.359.45-.058.227-.139.24-.22.244l-.694,0H42.453a2.758,2.758,0,0,0-2.889,2.91l-.007,3.955c-.007,3.732-.014,7.467.024,11.2a1.342,1.342,0,0,1-.338.981,1.186,1.186,0,0,1-.863.321c-.785-.027-1.509-.037-2.233-.037l-1.638.01-.751,0V42.659c0-2.142.007-4.283,0-6.425a6.448,6.448,0,0,0-5.1-6.371,5.489,5.489,0,0,0-1.2-.145L26.23,29.7c-.562-.007-1.123-.014-1.688-.014-.646,0-1.289.01-1.935.041A6.36,6.36,0,0,0,16.387,36.3c-.01,2.1-.007,4.2-.007,6.3l0,1.983-.565,0-1.864,0c-.849,0-1.7,0-2.541-.02-.572-.014-.832-.565-.832-1.076l0-11.033V28.408a2.825,2.825,0,0,0-3.157-3.167H5.794" transform="translate(-0.001 0.001)"/></g></g></svg>