<svg xmlns="http://www.w3.org/2000/svg" xmlns:xlink="http://www.w3.org/1999/xlink" width="48.619" height="51.923" viewBox="0 0 48.619 51.923"><defs><style>.a{fill:#bababa;}.b{clip-path:url(#a);}</style><clipPath id="a"><rect class="a" width="48.619" height="51.923"/></clipPath></defs><g transform="translate(0 0)"><g class="b" transform="translate(0 0)"><path class="a" d="M43.61,51.925a2.531,2.531,0,0,1-.885-.161L32.3,47.844a23.919,23.919,0,0,1-7.991,1.367A24.608,24.608,0,0,1,24.309,0a24.663,24.663,0,0,1,20,38.584L46.086,48.99a2.505,2.505,0,0,1-.875,2.359,2.539,2.539,0,0,1-1.6.576M32.3,42.647a2.518,2.518,0,0,1,.885.161L40.4,45.519l-1.216-7.127a2.517,2.517,0,0,1,.469-1.93A19.639,19.639,0,0,0,24.309,5.025,19.456,19.456,0,0,0,5.026,24.607,19.453,19.453,0,0,0,24.309,44.185a18.964,18.964,0,0,0,7.06-1.357,2.478,2.478,0,0,1,.932-.181" transform="translate(0 -0.003)"/><path class="a" d="M9.018,22.609A2.514,2.514,0,0,1,6.5,20.1V5.778a2.513,2.513,0,0,1,5.026,0V20.1a2.514,2.514,0,0,1-2.513,2.513" transform="translate(15.291 7.675)"/><path class="a" d="M9.017,14.492a2.524,2.524,0,0,1-.972-.2,2.6,2.6,0,0,1-.8-.536,2.488,2.488,0,0,1-.536-2.748,2.464,2.464,0,0,1,1.34-1.34,2.449,2.449,0,0,1,1.943,0,2.464,2.464,0,0,1,1.34,1.34,2.488,2.488,0,0,1-.536,2.748,2.6,2.6,0,0,1-.8.536,2.4,2.4,0,0,1-.972.2" transform="translate(15.289 22.252)"/></g></g></svg>