<?xml version="1.0" encoding="UTF-8" standalone="no"?>
<svg
   xmlns:dc="http://purl.org/dc/elements/1.1/"
   xmlns:cc="http://creativecommons.org/ns#"
   xmlns:rdf="http://www.w3.org/1999/02/22-rdf-syntax-ns#"
   xmlns:svg="http://www.w3.org/2000/svg"
   xmlns="http://www.w3.org/2000/svg"
   xmlns:sodipodi="http://sodipodi.sourceforge.net/DTD/sodipodi-0.dtd"
   xmlns:inkscape="http://www.inkscape.org/namespaces/inkscape"
   inkscape:version="1.0beta2 (2b71d25, 2019-12-03)"
   sodipodi:docname="unic-logo-vert.b3116c9b.svg"
   id="svg885"
   version="1.1"
   viewBox="0 0 115.371 135"
   height="135"
   width="115.371">
  <metadata
     id="metadata889">
    <rdf:RDF>
      <cc:Work
         rdf:about="">
        <dc:format>image/svg+xml</dc:format>
        <dc:type
           rdf:resource="http://purl.org/dc/dcmitype/StillImage" />
      </cc:Work>
    </rdf:RDF>
  </metadata>
  <sodipodi:namedview
     inkscape:guide-bbox="true"
     showguides="true"
     inkscape:current-layer="svg885"
     inkscape:window-maximized="0"
     inkscape:window-y="48"
     inkscape:window-x="1584"
     inkscape:cy="67.5"
     inkscape:cx="13.760869"
     inkscape:zoom="2.0148148"
     showgrid="false"
     id="namedview887"
     inkscape:window-height="752"
     inkscape:window-width="1426"
     inkscape:pageshadow="2"
     inkscape:pageopacity="0"
     guidetolerance="10"
     gridtolerance="10"
     objecttolerance="10"
     borderopacity="1"
     inkscape:document-rotation="0"
     bordercolor="#666666"
     pagecolor="#ffffff">
    <sodipodi:guide
       id="guide1584"
       orientation="1,0"
       position="23.83,92.281" />
  </sodipodi:namedview>
  <defs
     id="defs869">
    <style
       id="style864">.a{fill:none;}.b{fill:#464749;}.c{clip-path:url(#a);}.d{fill:#aa0720;}</style>
    <clipPath
       id="a">
      <rect
         id="rect866"
         height="135"
         width="115.371"
         class="a" />
    </clipPath>
    <clipPath
       id="a-5">
      <rect
         y="0"
         x="0"
         class="a"
         width="115.371"
         height="135"
         id="rect866-9" />
    </clipPath>
    <clipPath
       id="clipPath1573">
      <rect
         y="0"
         x="0"
         class="a"
         width="115.371"
         height="135"
         id="rect1571" />
    </clipPath>
  </defs>
  <path
     style="fill:#ffffff"
     class="b"
     d="m 24.135,126.086 a 11.629,11.629 0 0 1 -2.615,3.957 12.207,12.207 0 0 1 -3.983,2.6 13.031,13.031 0 0 1 -5,0.95 13.038,13.038 0 0 1 -5,-0.95 12.263,12.263 0 0 1 -3.986,-2.6 A 11.678,11.678 0 0 1 0.94,126.086 13.125,13.125 0 0 1 0,121.077 V 99.541 h 5.127 v 20.135 a 19.947,19.947 0 0 0 0.229,3.48 7,7 0 0 0 0.838,2.278 6.357,6.357 0 0 0 2.611,2.505 8.133,8.133 0 0 0 7.437,0 6.339,6.339 0 0 0 2.641,-2.505 7.061,7.061 0 0 0 0.836,-2.278 20.231,20.231 0 0 0 0.23,-3.48 V 99.541 h 5.123 v 21.536 a 13.124,13.124 0 0 1 -0.937,5.009"
     id="path875"
     inkscape:connector-curvature="0" />
  <path
     style="fill:#ffffff"
     class="b"
     d="m 40.3,109.558 v 23.388 H 35.176 V 97.29 l 24.67,25.443 V 99.54 h 5.125 V 135 Z"
     id="path877"
     inkscape:connector-curvature="0" />
  <rect
     style="fill:#ffffff"
     class="b"
     width="5.1290002"
     height="33.404999"
     id="rect879"
     x="75.121002"
     y="99.540001" />
  <path
     style="fill:#ffffff"
     class="b"
     d="m 106.285,133.597 a 17.74,17.74 0 0 1 -6.926,-1.351 17.492,17.492 0 0 1 -5.584,-3.683 17.27,17.27 0 0 1 -5.1,-12.345 16.03,16.03 0 0 1 1.424,-6.66 17.874,17.874 0 0 1 9.388,-9.242 17.047,17.047 0 0 1 6.8,-1.377 23.386,23.386 0 0 1 2.516,0.125 13.56,13.56 0 0 1 2.2,0.426 15.523,15.523 0 0 1 2.133,0.777 q 1.068,0.477 2.232,1.127 v 5.959 a 22.556,22.556 0 0 0 -2.334,-1.7 12.5,12.5 0 0 0 -2.234,-1.128 12.246,12.246 0 0 0 -2.307,-0.627 15.643,15.643 0 0 0 -2.565,-0.2 11.242,11.242 0 0 0 -4.695,1 12.355,12.355 0 0 0 -3.857,2.729 13.122,13.122 0 0 0 -2.614,4.031 13.043,13.043 0 0 0 0,9.842 12.353,12.353 0 0 0 2.639,3.957 12.006,12.006 0 0 0 3.985,2.631 13.017,13.017 0 0 0 5,0.95 11.2,11.2 0 0 0 4.443,-0.875 19.173,19.173 0 0 0 4.541,-2.932 v 6.112 a 18.658,18.658 0 0 1 -9.086,2.453"
     id="path881"
     inkscape:connector-curvature="0" />
  <path
     class="c"
     d="M 28.727,63.811 C 12.887,63.811 0,51.42 0,36.189 V 0 h 57.458 v 36.191 c 0,15.23 -12.888,27.62 -28.731,27.62"
     id="path840"
     inkscape:connector-curvature="0"
     style="fill:#ffffff"
     clip-path="url(#a)"
     transform="matrix(1.2472074,0,0,1.1726768,23.365518,0.28217152)" />
  <path
     class="c"
     d="m 1.976,1.976 v 34.212 c 0,14.167 11.976,25.648 26.752,25.648 14.776,0 26.748,-11.481 26.755,-25.645 V 1.976 Z"
     id="path842"
     inkscape:connector-curvature="0"
     style="fill:#ffffff"
     clip-path="url(#a)"
     transform="matrix(1.2472074,0,0,1.1726768,23.365518,0.28217152)" />
  <path
     class="d"
     d="M 50.557134,2.5993809 V 25.857079 L 25.828753,2.5993809 Z"
     id="path844"
     inkscape:connector-curvature="0"
     style="fill:#464749;stroke-width:1.20937" />
  <path
     class="e"
     d="m 25.83,42.718999 c 0,16.613312 14.936556,30.076815 33.365293,30.076815 18.428738,0 33.360302,-13.463503 33.369032,-30.073297 V 2.5993809 H 59.206518 V 45.484171 L 25.83,14.10334 Z"
     id="path846"
     inkscape:connector-curvature="0"
     style="fill:#aa0720;stroke-width:1.20937" />
</svg>
