<svg xmlns="http://www.w3.org/2000/svg" xmlns:xlink="http://www.w3.org/1999/xlink" width="84.46" height="64.845" viewBox="0 0 84.46 64.845"><defs><style>.a{fill:#8e8e8e;}.b{clip-path:url(#a);}.c{fill:#bce3ff;}</style><clipPath id="a"><rect class="a" width="84.46" height="64.845"/></clipPath></defs><g transform="translate(-1853.54 -996.443)"><g transform="translate(1853.54 996.443)"><g class="b"><path class="a" d="M84.46,64.845H32.186A32.186,32.186,0,0,1,0,32.659v-.473A32.186,32.186,0,0,1,32.186,0H84.46Z"/></g></g><path class="c" d="M38.161,20.772A17.192,17.192,0,0,1,55.235,38.079a17.378,17.378,0,0,1-3.48,10.469l1.526,8.963-8.859-3.331a16.822,16.822,0,0,1-6.261,1.206,17.309,17.309,0,0,1,0-34.615" transform="translate(1847.839 989.724)"/></g></svg>