<svg xmlns="http://www.w3.org/2000/svg" xmlns:xlink="http://www.w3.org/1999/xlink" width="37" height="37" viewBox="0 0 37 37"><defs><style>.a{fill:#bababa;}.b{clip-path:url(#a);}</style><clipPath id="a"><rect class="a" width="37" height="37" transform="translate(0 -0.252)"/></clipPath></defs><g transform="translate(0 22.252)"><g class="b" transform="translate(0 -22)"><path class="a" d="M25.6,31.474A5.872,5.872,0,1,1,31.474,25.6,5.878,5.878,0,0,1,25.6,31.474m0-9.751A3.88,3.88,0,1,0,29.482,25.6,3.884,3.884,0,0,0,25.6,21.723" transform="translate(-7.23 -7.23)"/><path class="a" d="M13.365,36.744a.988.988,0,0,1-.271-.037,18.42,18.42,0,0,1-3.947-1.632,1,1,0,0,1-.511-.921l.251-4.9a15.014,15.014,0,0,1-1.4-1.4l-4.9.251a1,1,0,0,1-.92-.508A18.257,18.257,0,0,1,.037,23.657a1,1,0,0,1,.291-1.009l3.639-3.291c-.022-.335-.033-.66-.033-.984s.011-.648.033-.984L.328,14.1a1,1,0,0,1-.291-1.009A18.244,18.244,0,0,1,1.671,9.144a1,1,0,0,1,.919-.508l4.9.245a14.1,14.1,0,0,1,1.4-1.4L8.636,2.59a1,1,0,0,1,.511-.921A18.42,18.42,0,0,1,13.094.037,1,1,0,0,1,14.1.328l3.279,3.633a14.942,14.942,0,0,1,1.979,0L22.641.328a1,1,0,0,1,1.01-.291A18.393,18.393,0,0,1,27.6,1.669a1,1,0,0,1,.511.921l-.25,4.895a14.159,14.159,0,0,1,1.4,1.4l4.9-.245a1,1,0,0,1,.919.509,18.232,18.232,0,0,1,1.633,3.943,1,1,0,0,1-.29,1.009l-3.64,3.292c.022.335.033.664.033.983s-.011.649-.033.984l3.64,3.291a1,1,0,0,1,.29,1.009A18.258,18.258,0,0,1,35.075,27.6a1,1,0,0,1-.92.509l-4.9-.251a14.937,14.937,0,0,1-1.4,1.4l.251,4.9a1,1,0,0,1-.511.921,18.42,18.42,0,0,1-3.947,1.632,1,1,0,0,1-1.01-.291l-3.285-3.639a14.76,14.76,0,0,1-1.967,0L14.1,36.416a1,1,0,0,1-.739.328m6.4-6a1,1,0,0,1,.739.329L23.7,34.612a16.465,16.465,0,0,0,2.39-.989l-.243-4.758a1,1,0,0,1,.364-.822,13.02,13.02,0,0,0,1.835-1.835,1,1,0,0,1,.822-.364l4.759.243a16.259,16.259,0,0,0,.988-2.385l-3.535-3.2a1,1,0,0,1-.324-.834c.043-.446.065-.883.065-1.3s-.022-.852-.065-1.3a1,1,0,0,1,.324-.834l3.535-3.2a16.238,16.238,0,0,0-.988-2.385l-4.767.238a.991.991,0,0,1-.827-.372A12.017,12.017,0,0,0,26.212,8.7a1,1,0,0,1-.368-.826l.243-4.758a16.465,16.465,0,0,0-2.39-.989L20.511,5.661a.992.992,0,0,1-.834.324,13.3,13.3,0,0,0-2.609,0,.993.993,0,0,1-.834-.324L13.048,2.132a16.494,16.494,0,0,0-2.39.989L10.9,7.879a1,1,0,0,1-.369.826,12.046,12.046,0,0,0-1.82,1.819.99.99,0,0,1-.827.372L3.12,10.657a16.253,16.253,0,0,0-.988,2.385l3.536,3.2a1,1,0,0,1,.323.834c-.044.454-.065.879-.065,1.3s.021.844.065,1.3a1,1,0,0,1-.323.834L2.132,23.7a16.341,16.341,0,0,0,.988,2.385l4.76-.243a1,1,0,0,1,.822.364,12.991,12.991,0,0,0,1.836,1.835,1,1,0,0,1,.364.822l-.244,4.758a16.524,16.524,0,0,0,2.39.989l3.192-3.535a1,1,0,0,1,.834-.324,13.168,13.168,0,0,0,2.6,0c.032,0,.063,0,.1,0" transform="translate(0 0)"/></g></g></svg>