<svg xmlns="http://www.w3.org/2000/svg" xmlns:xlink="http://www.w3.org/1999/xlink" width="35.584" height="34.834" viewBox="0 0 35.584 34.834"><defs><style>.a{fill:#bababa;}.b{clip-path:url(#a);}</style><clipPath id="a"><rect class="a" width="35.584" height="34.834"/></clipPath></defs><g transform="translate(0 0)"><g class="b" transform="translate(0 0)"><path class="a" d="M38.4,0H24.625a1.03,1.03,0,0,0-1.03,1.03V14.477a1.03,1.03,0,0,0,1.03,1.03H38.4a1.03,1.03,0,0,0,1.03-1.03V1.03A1.03,1.03,0,0,0,38.4,0m-1.03,13.446H25.655V2.061H37.367Z" transform="translate(-3.844 0)"/><path class="a" d="M14.8,23.089H1.03A1.03,1.03,0,0,0,0,24.119V37.565A1.03,1.03,0,0,0,1.03,38.6H14.8a1.03,1.03,0,0,0,1.03-1.03V24.119a1.03,1.03,0,0,0-1.03-1.03m-1.03,13.445H2.06V25.149H13.772Z" transform="translate(0 -3.761)"/><path class="a" d="M14.8,0H1.03A1.03,1.03,0,0,0,0,1.03V14.477a1.03,1.03,0,0,0,1.03,1.03H14.8a1.03,1.03,0,0,0,1.03-1.03V1.03A1.03,1.03,0,0,0,14.8,0m-1.03,13.446H2.06V2.061H13.772Z" transform="translate(0 0)"/><path class="a" d="M38.4,29.94H32.631v-5.82a1.03,1.03,0,1,0-2.06,0v5.82H24.625a1.03,1.03,0,1,0,0,2.06h5.946v5.159a1.03,1.03,0,1,0,2.06,0V32H38.4a1.03,1.03,0,1,0,0-2.06" transform="translate(-3.844 -3.761)"/></g></g></svg>