<svg xmlns="http://www.w3.org/2000/svg" xmlns:xlink="http://www.w3.org/1999/xlink" width="36.559" height="36.559" viewBox="0 0 36.559 36.559"><defs><style>.a{fill:#707070;}.b{clip-path:url(#a);}</style><clipPath id="a"><rect class="a" width="36.559" height="36.559"/></clipPath></defs><g transform="translate(0 0)"><g class="b" transform="translate(0 0)"><path class="a" d="M25.746,30.423a.944.944,0,0,1-.943-.935l-.031-3.744a.943.943,0,0,1,.943-.95,5.369,5.369,0,1,0-3.8-9.165A.943.943,0,0,1,20.586,14.3a7.254,7.254,0,1,1,6.08,12.322l.023,2.855a.943.943,0,0,1-.935.95Z" transform="translate(-7.542 -4.52)"/><path class="a" d="M28.521,45.987a.942.942,0,0,1-.943-.943v-.263a.943.943,0,0,1,1.886,0v.263a.942.942,0,0,1-.943.943" transform="translate(-10.242 -16.28)"/><path class="a" d="M18.279,36.559a18.279,18.279,0,1,1,18.28-18.279,18.3,18.3,0,0,1-18.28,18.279m0-34.673A16.393,16.393,0,1,0,34.673,18.279,16.412,16.412,0,0,0,18.279,1.886" transform="translate(0 0)"/></g></g></svg>