<svg xmlns="http://www.w3.org/2000/svg" xmlns:xlink="http://www.w3.org/1999/xlink" width="33" height="33" viewBox="0 0 33 33"><defs><style>.a{fill:#58595b;}.b{clip-path:url(#a);}</style><clipPath id="a"><rect class="a" width="33" height="33"/></clipPath></defs><g class="b"><path class="a" d="M5.278,21.723a.568.568,0,0,1-.543-.733L6.05,16.661a.564.564,0,0,1,.141-.236L16.231,6.338a.568.568,0,1,1,.8.8l-9.94,9.985L6.13,20.3l3.158-.966,9.939-9.985a.568.568,0,1,1,.805.8L9.992,20.236a.574.574,0,0,1-.236.141L5.444,21.7a.581.581,0,0,1-.166.024" transform="translate(2.859 3.746)"/><path class="a" d="M8.052,15.547a.566.566,0,0,1-.4-.167L5.695,13.416a.568.568,0,1,1,.8-.8l1.956,1.965a.567.567,0,0,1-.4.967" transform="translate(3.356 7.555)"/><path class="a" d="M16.388,11.368a.566.566,0,0,1-.4-.167L11.47,6.663a.567.567,0,1,1,.8-.8L16.79,10.4a.567.567,0,0,1-.4.967" transform="translate(6.861 3.457)"/><path class="a" d="M15.962,10.213a.569.569,0,0,1-.4-.167l-3-3.01a.567.567,0,0,1,0-.8L13.6,5.2a1.734,1.734,0,0,1,2.459,0L17.4,6.549a1.746,1.746,0,0,1,0,2.459l-1.033,1.038a.568.568,0,0,1-.4.167m-2.2-3.577,2.2,2.206.632-.635a.611.611,0,0,0,0-.858L15.249,6A.615.615,0,0,0,14.4,6Z" transform="translate(7.525 2.845)"/><path class="a" d="M9.013,15.125a.567.567,0,0,1-.4-.967l6.85-6.882a.568.568,0,0,1,.805.8L9.415,14.958a.566.566,0,0,1-.4.167" transform="translate(5.126 4.314)"/><path class="a" d="M16.5,33A16.5,16.5,0,1,1,33,16.5,16.518,16.518,0,0,1,16.5,33m0-31.866A15.366,15.366,0,1,0,31.866,16.5,15.383,15.383,0,0,0,16.5,1.134" transform="translate(0 0)"/></g></svg>