<svg xmlns="http://www.w3.org/2000/svg" xmlns:xlink="http://www.w3.org/1999/xlink" width="43.487" height="21.758" viewBox="0 0 43.487 21.758"><defs><style>.a{fill:none;}.b{clip-path:url(#a);}.c{fill:#e8e8e8;}.d{fill:#707070;}</style><clipPath id="a"><rect class="a" width="43.487" height="21.758" transform="translate(0 0)"/></clipPath></defs><g transform="translate(0 0)"><g class="b"><path class="c" d="M10.982,1H32.5a9.879,9.879,0,1,1,.206,19.757c-.069,0-.137,0-.206,0H10.982A9.879,9.879,0,1,1,10.776,1c.069,0,.137,0,.206,0"/><path class="d" d="M32.621,0A10.879,10.879,0,0,1,40.38,18.491a10.8,10.8,0,0,1-7.659,3.267H10.982A10.879,10.879,0,0,1,10.766,0H32.621M32.7,19.758A8.879,8.879,0,0,0,38.82,4.536,8.821,8.821,0,0,0,32.611,2H10.791a8.879,8.879,0,1,0,.181,17.757Z"/><path class="d" d="M31.85,17.4a6.525,6.525,0,1,0-6.525-6.525A6.525,6.525,0,0,0,31.85,17.4"/><path class="d" d="M13.064,13.858a2.977,2.977,0,1,1,2.978-2.977,2.98,2.98,0,0,1-2.978,2.977m0-4.954a1.977,1.977,0,1,0,1.978,1.977A1.979,1.979,0,0,0,13.064,8.9"/><path class="d" d="M13.064,6.9a.5.5,0,0,1-.5-.5V4.883a.5.5,0,0,1,1,0V6.4a.5.5,0,0,1-.5.5"/><path class="d" d="M13.064,17.354a.5.5,0,0,1-.5-.5v-1.5a.5.5,0,0,1,1,0v1.5a.5.5,0,0,1-.5.5"/><path class="d" d="M19.048,11.381H17.54a.5.5,0,0,1,0-1h1.508a.5.5,0,0,1,0,1"/><path class="d" d="M8.588,11.381H7.076a.5.5,0,0,1,0-1H8.588a.5.5,0,0,1,0,1"/><path class="d" d="M9.666,7.983a.5.5,0,0,1-.354-.146L9,7.523a.5.5,0,1,1,.707-.707l.314.313a.5.5,0,0,1-.354.854"/><path class="d" d="M16.776,15.092a.5.5,0,0,1-.354-.146l-.313-.314a.5.5,0,1,1,.707-.707l.314.313a.5.5,0,0,1-.354.854"/><path class="d" d="M16.462,7.983a.5.5,0,0,1-.354-.854l.314-.313a.5.5,0,1,1,.707.707l-.313.314a.5.5,0,0,1-.354.146"/><path class="d" d="M9.353,15.092A.5.5,0,0,1,9,14.238l.314-.313a.5.5,0,1,1,.707.707l-.313.314a.5.5,0,0,1-.354.146"/></g></g></svg>