<svg xmlns="http://www.w3.org/2000/svg" xmlns:xlink="http://www.w3.org/1999/xlink" width="36.123" height="37.783" viewBox="0 0 36.123 37.783"><defs><style>.a{fill:#58595b;}.b{clip-path:url(#a);}</style><clipPath id="a"><rect class="a" width="36.123" height="37.783"/></clipPath></defs><g class="b"><path class="a" d="M12.3,8.276l1.712-1.193.354-.205.383-.311.354-.205.437-.387.132-.052.6-.388.086-.059.208-.162.087-.06c.639-.484,1.28-.963,1.915-1.452.617-.476,1.227-.962,1.84-1.443l.081-.057.652-.529.086-.061c.607-.5,1.212-1.006,1.825-1.5A2.365,2.365,0,0,1,23.441,0h.369l.671.514.128.151a.061.061,0,0,1,0,.065l-.107.246c0,3.86,0,7.721-.013,11.581a2.676,2.676,0,0,1-.243.843c-.02.057-.142.079-.217.117l-.227.129a.559.559,0,0,1-.838-.369,3.918,3.918,0,0,1-.174-1.012c-.013-3.034-.007-6.069-.007-9.1V2.644c-.352.283-.645.513-.93.751-.477.4-.948.8-1.425,1.2a.622.622,0,0,1-.162.071l-.081.057L19.6,5.18l-.086.059-.137.141-.13.081c-1.346.983-2.669,2-4.044,2.94-1.317.9-2.689,1.719-4.035,2.575-.12.076-.231.166-.347.249l-.369.148c-.4.187-.811.363-1.2.567a.4.4,0,0,0-.189.29q-.011,5.915,0,11.83c0,.012.006.024,0,0,.716.354,1.409.692,2.1,1.041a.85.85,0,0,1-.764,1.509,4.119,4.119,0,0,1-.531-.261c-.064-.239-.166-.4-.442-.222l-.6-.3-.056-.053a53.86,53.86,0,0,0-7.181-.147A.988.988,0,0,1,.467,24.5c.018-3.82.01-7.639.007-11.459,0-.588-.016-1.176-.025-1.764l.045-.144c-.007-.4.315-.512.589-.664l.233-.012c2.12,0,4.239-.01,6.359.008a3.787,3.787,0,0,0,1.4-.345c.373-.142.72-.352,1.079-.531l.166-.2h.1c0,.022,0,.045,0,.078l.013-.079.239-.093.166-.2.082,0,.017.066.015-.068c.057-.044.111-.092.172-.13.1-.06.2-.112.294-.168l.038.087.037-.089a5.157,5.157,0,0,1,.407-.366,1.648,1.648,0,0,1,.33-.149l.037.087.037-.089M2.183,12.188v11.7c1.616,0,3.174-.01,4.733.008.336,0,.437-.078.436-.427-.013-3.648-.008-7.3-.008-10.944v-.341Z" transform="translate(-0.345)"/><path class="a" d="M9.488,48.75l-.663.458-.661-.168-.222-.292a.864.864,0,0,1,.227-1.077q7.788-7.776,15.566-15.564c2.454-2.459,4.882-4.944,7.339-7.4q4.755-4.751,9.537-9.476a.913.913,0,0,1,1.281-.137.944.944,0,0,1,.045,1.227,2.1,2.1,0,0,1-.249.268q-5.631,5.632-11.266,11.259a.781.781,0,0,0-.254.608q.01,8.83,0,17.661a6.045,6.045,0,0,1-.162.988l-.228.187-.377.128-.288.089-.293-.165-.146-.077-.143-.142-.894-.749-.081-.057-.206-.153-.225-.154-.143-.142-.954-.74-.227-.219-.024-.073-.056-.058-.44-.244-.3-.221-.369-.3-.165-.168-.1-.036-.169-.16-.521-.375-.144-.142-.082-.086L23.345,43l-.869-.6-.294-.22,0,0-.228-.2-.587-.393-.59-.443-.443-.3-.516-.369-.885-.59-.308-.2a.988.988,0,0,0-.236.131q-4.424,4.416-8.842,8.837a.635.635,0,0,0-.062.087m18.96-18.808.031-.111-.108.092c-.1.09-.2.177-.3.272q-3.827,3.83-7.652,7.663c-.135.135-.261.278-.392.418l-.114.087.1.064c.116.1.226.211.35.3.62.444,1.243.882,1.866,1.321l.086.059,6.133,4.675v-.42q0-2.655,0-5.311,0-4.555-.009-9.109" transform="translate(-6.017 -11.426)"/><path class="a" d="M39,111.986c.276-.182.378-.017.442.222L39,111.986" transform="translate(-29.922 -85.863)"/><path class="a" d="M62.252,27.331l-.354.205.354-.205" transform="translate(-47.492 -20.97)"/><path class="a" d="M59.082,29.55l-.354.205.354-.205" transform="translate(-45.06 -22.673)"/><path class="a" d="M3.409,44.53l-.233.012c.07-.16.146-.187.233-.012" transform="translate(-2.437 -34.074)"/><path class="a" d="M44.527,39.078l-.166.2.166-.2" transform="translate(-34.037 -29.983)"/><path class="a" d="M103.809,3.379l.107-.247-.107.247" transform="translate(-79.649 -2.403)"/><path class="a" d="M42.308,40.331l-.166.2.166-.2" transform="translate(-32.334 -30.945)"/><path class="a" d="M103.83,2.358l-.128-.151.128.151" transform="translate(-79.567 -1.693)"/><path class="a" d="M51.128,35.558l-.036.089-.038-.087h.074" transform="translate(-39.172 -27.282)"/><path class="a" d="M.15,47.829.1,47.973,0,47.857l.15-.028" transform="translate(0 -36.698)"/><path class="a" d="M47.641,37.777l-.036.089-.038-.087h.074" transform="translate(-36.497 -28.985)"/><path class="a" d="M74.455,135.66l.085.06-.085-.06" transform="translate(-57.127 -104.087)"/><path class="a" d="M43.289,40.323l-.013.079v-.078h.013" transform="translate(-33.204 -30.938)"/><path class="a" d="M45.457,39.063l-.015.068-.017-.066h.032" transform="translate(-34.853 -29.972)"/><path class="a" d="M65.426,25.445l-.131.052.131-.052" transform="translate(-50.099 -19.523)"/><path class="a" d="M92.561,150.009l-.017-.067.081.057-.031.012Z" transform="translate(-71.006 -115.045)"/><path class="a" d="M68.518,23.528l-.086.059.086-.059" transform="translate(-52.506 -18.052)"/><path class="a" d="M69.784,22.573l-.087.06.087-.06" transform="translate(-53.476 -17.32)"/><path class="a" d="M86.285,9.887l-.081.057.081-.057" transform="translate(-66.141 -7.586)"/><path class="a" d="M89.438,7.353l-.086.061.086-.061" transform="translate(-68.557 -5.642)"/><path class="a" d="M96.126,79.2l-.077-.018.108-.092-.031.111" transform="translate(-73.695 -60.68)"/><path class="a" d="M59.842,115.369c0,.05-.006.1-.01.151l-.1-.064.114-.087" transform="translate(-45.827 -88.519)"/></g></svg>