<svg xmlns="http://www.w3.org/2000/svg" xmlns:xlink="http://www.w3.org/1999/xlink" width="45.418" height="45.418" viewBox="0 0 45.418 45.418"><defs><style>.a{fill:#58595b;}.b{clip-path:url(#a);}</style><clipPath id="a"><rect class="a" width="45.418" height="45.418"/></clipPath></defs><g class="b"><path class="a" d="M22.709,0A22.709,22.709,0,1,0,45.418,22.709,22.735,22.735,0,0,0,22.709,0m0,43.4A20.692,20.692,0,1,1,43.4,22.709,20.715,20.715,0,0,1,22.709,43.4"/><path class="a" d="M63.148,43.133a1.009,1.009,0,0,0-1.426,0L53.074,51.78l-8.819-8.819a1.008,1.008,0,0,0-1.426,1.426l8.819,8.819L43.9,60.949a1.009,1.009,0,0,0,1.426,1.426l7.743-7.743L61.646,63.2a1.008,1.008,0,0,0,1.426-1.426L54.5,53.206l8.648-8.648a1.008,1.008,0,0,0,0-1.426" transform="translate(-30.28 -30.374)"/></g></svg>