<svg xmlns="http://www.w3.org/2000/svg" xmlns:xlink="http://www.w3.org/1999/xlink" width="42.871" height="40.735" viewBox="0 0 42.871 40.735"><defs><style>.a{fill:#707070;}.b{clip-path:url(#a);}</style><clipPath id="a"><rect class="a" width="42.871" height="40.735"/></clipPath></defs><g transform="translate(0 0)"><g class="b" transform="translate(0 0)"><path class="a" d="M15.948,31.193H1.118A1.118,1.118,0,0,1,0,30.075V1.118A1.118,1.118,0,0,1,1.118,0h29.66A1.118,1.118,0,0,1,31.9,1.118V13.3a1.118,1.118,0,0,1-2.236,0V2.236H2.236V28.958H15.948a1.118,1.118,0,1,1,0,2.236" transform="translate(0 0)"/><path class="a" d="M37.292,46.5A12.093,12.093,0,1,1,49.386,34.411,12.107,12.107,0,0,1,37.292,46.5m0-21.951a9.858,9.858,0,1,0,9.858,9.858,9.868,9.868,0,0,0-9.858-9.858" transform="translate(-6.515 -5.77)"/><path class="a" d="M41.119,41.818A1.118,1.118,0,0,1,40,40.7V32.252a1.118,1.118,0,1,1,2.236,0V40.7a1.118,1.118,0,0,1-1.118,1.118" transform="translate(-10.341 -8.049)"/><path class="a" d="M43.946,39.357H35.023a1.118,1.118,0,0,1,0-2.236h8.922a1.118,1.118,0,1,1,0,2.236" transform="translate(-8.766 -9.596)"/></g></g></svg>