<svg xmlns="http://www.w3.org/2000/svg" xmlns:xlink="http://www.w3.org/1999/xlink" width="35.573" height="34.834" viewBox="0 0 35.573 34.834"><defs><style>.a{fill:#707070;}.b{clip-path:url(#a);}</style><clipPath id="a"><rect class="a" width="35.573" height="34.834"/></clipPath></defs><g transform="translate(0 0)"><g class="b" transform="translate(0 0)"><path class="a" d="M36.912,15.777H17.437a1.259,1.259,0,0,1-1.259-1.259V1.259A1.259,1.259,0,0,1,17.437,0H36.912a1.259,1.259,0,0,1,1.259,1.259V14.518a1.259,1.259,0,0,1-1.259,1.259M18.7,13.259H35.654V2.519H18.7Z" transform="translate(-2.598 0)"/><path class="a" d="M39.118,38.48H31.17a1.258,1.258,0,0,1-1.259-1.259V23.963A1.259,1.259,0,0,1,31.17,22.7h7.948a1.259,1.259,0,0,1,1.259,1.259V37.221a1.259,1.259,0,0,1-1.259,1.259m-6.688-2.518h5.43V25.222h-5.43Z" transform="translate(-4.803 -3.646)"/><path class="a" d="M21.513,38.48H1.259A1.259,1.259,0,0,1,0,37.221V23.963A1.259,1.259,0,0,1,1.259,22.7H21.513a1.259,1.259,0,0,1,1.259,1.259V37.221a1.259,1.259,0,0,1-1.259,1.259m-19-2.518H20.254V25.222H2.518Z" transform="translate(0 -3.646)"/><path class="a" d="M7.035,11.778H4.968A4.972,4.972,0,0,1,0,6.811V4.967A4.972,4.972,0,0,1,4.968,0H7.035A4.973,4.973,0,0,1,12,4.967V6.811a4.973,4.973,0,0,1-4.968,4.967M4.968,2.518A2.451,2.451,0,0,0,2.518,4.967V6.811A2.451,2.451,0,0,0,4.968,9.26H7.035A2.451,2.451,0,0,0,9.485,6.811V4.967A2.452,2.452,0,0,0,7.035,2.518Z" transform="translate(0 0)"/><path class="a" d="M10.733,18.313H1.274a1.259,1.259,0,1,1,0-2.518h9.459a1.259,1.259,0,0,1,0,2.518" transform="translate(-0.002 -2.536)"/></g></g></svg>