<?xml version="1.0" encoding="UTF-8" standalone="no"?>
<svg
   xmlns:dc="http://purl.org/dc/elements/1.1/"
   xmlns:cc="http://creativecommons.org/ns#"
   xmlns:rdf="http://www.w3.org/1999/02/22-rdf-syntax-ns#"
   xmlns:svg="http://www.w3.org/2000/svg"
   xmlns="http://www.w3.org/2000/svg"
   xmlns:sodipodi="http://sodipodi.sourceforge.net/DTD/sodipodi-0.dtd"
   xmlns:inkscape="http://www.inkscape.org/namespaces/inkscape"
   inkscape:version="1.0beta2 (2b71d25, 2019-12-03)"
   sodipodi:docname="icon-pen-dark.svg"
   id="svg854"
   version="1.1"
   viewBox="0 0 33 33"
   height="33"
   width="33">
  <metadata
     id="metadata858">
    <rdf:RDF>
      <cc:Work
         rdf:about="">
        <dc:format>image/svg+xml</dc:format>
        <dc:type
           rdf:resource="http://purl.org/dc/dcmitype/StillImage" />
      </cc:Work>
    </rdf:RDF>
  </metadata>
  <sodipodi:namedview
     inkscape:current-layer="svg854"
     inkscape:window-maximized="0"
     inkscape:window-y="119"
     inkscape:window-x="73"
     inkscape:cy="16.5"
     inkscape:cx="16.5"
     inkscape:zoom="18.181818"
     showgrid="false"
     id="namedview856"
     inkscape:window-height="648"
     inkscape:window-width="1219"
     inkscape:pageshadow="2"
     inkscape:pageopacity="0"
     guidetolerance="10"
     gridtolerance="10"
     objecttolerance="10"
     borderopacity="1"
     inkscape:document-rotation="0"
     bordercolor="#666666"
     pagecolor="#ffffff" />
  <defs
     id="defs838">
    <style
       id="style833">.a{fill:#58595b;}.b{clip-path:url(#a);}</style>
    <clipPath
       id="a">
      <rect
         id="rect835"
         height="33"
         width="33"
         class="a" />
    </clipPath>
  </defs>
  <path
     style="fill:#ffffff"
     class="a"
     d="M 8.137,25.469 A 0.568,0.568 0 0 1 7.594,24.736 L 8.909,20.407 A 0.564,0.564 0 0 1 9.05,20.171 L 19.09,10.084 a 0.568,0.568 0 1 1 0.8,0.8 l -9.94,9.985 -0.961,3.177 3.158,-0.966 9.939,-9.985 a 0.568,0.568 0 1 1 0.805,0.8 l -10.04,10.087 a 0.574,0.574 0 0 1 -0.236,0.141 L 8.303,25.446 A 0.581,0.581 0 0 1 8.137,25.47"
     id="path840"
     inkscape:connector-curvature="0" />
  <path
     style="fill:#ffffff"
     class="a"
     d="m 11.408,23.102 a 0.566,0.566 0 0 1 -0.4,-0.167 L 9.051,20.971 a 0.568,0.568 0 1 1 0.8,-0.8 l 1.956,1.965 a 0.567,0.567 0 0 1 -0.4,0.967"
     id="path842"
     inkscape:connector-curvature="0" />
  <path
     style="fill:#ffffff"
     class="a"
     d="m 23.249,14.825 a 0.566,0.566 0 0 1 -0.4,-0.167 L 18.331,10.12 a 0.567,0.567 0 1 1 0.8,-0.8 l 4.52,4.537 a 0.567,0.567 0 0 1 -0.4,0.967"
     id="path844"
     inkscape:connector-curvature="0" />
  <path
     style="fill:#ffffff"
     class="a"
     d="m 23.487,13.058 a 0.569,0.569 0 0 1 -0.4,-0.167 l -3,-3.01 a 0.567,0.567 0 0 1 0,-0.8 l 1.038,-1.036 a 1.734,1.734 0 0 1 2.459,0 l 1.341,1.349 a 1.746,1.746 0 0 1 0,2.459 l -1.033,1.038 a 0.568,0.568 0 0 1 -0.4,0.167 m -2.2,-3.577 2.2,2.206 0.632,-0.635 a 0.611,0.611 0 0 0 0,-0.858 l -1.35,-1.349 a 0.615,0.615 0 0 0 -0.849,0 z"
     id="path846"
     inkscape:connector-curvature="0" />
  <path
     style="fill:#ffffff"
     class="a"
     d="m 14.139,19.439 a 0.567,0.567 0 0 1 -0.4,-0.967 l 6.85,-6.882 a 0.568,0.568 0 0 1 0.805,0.8 l -6.853,6.882 a 0.566,0.566 0 0 1 -0.4,0.167"
     id="path848"
     inkscape:connector-curvature="0" />
  <path
     style="fill:#ffffff"
     class="a"
     d="M 16.5,33 A 16.5,16.5 0 1 1 33,16.5 16.518,16.518 0 0 1 16.5,33 m 0,-31.866 A 15.366,15.366 0 1 0 31.866,16.5 15.383,15.383 0 0 0 16.5,1.134"
     id="path850"
     inkscape:connector-curvature="0" />
</svg>
