<svg xmlns="http://www.w3.org/2000/svg" xmlns:xlink="http://www.w3.org/1999/xlink" width="44.282" height="48.883" viewBox="0 0 44.282 48.883"><defs><style>.a{fill:none;}.b{clip-path:url(#a);}.c{fill:#58595b;}</style><clipPath id="a"><rect class="a" width="44.282" height="48.883"/></clipPath></defs><g transform="translate(0 0)"><g class="b" transform="translate(0 0)"><path class="c" d="M31.308,14.432H26.522a9.646,9.646,0,0,0-19.292,0H2.444a14.432,14.432,0,1,1,28.864,0" transform="translate(5.354 -0.001)"/><path class="c" d="M41.889,40.617H2.393A2.394,2.394,0,0,1,0,38.224V6.166A2.394,2.394,0,0,1,2.393,3.773h39.5a2.394,2.394,0,0,1,2.393,2.393V38.224a2.394,2.394,0,0,1-2.393,2.393m-37.1-4.786H39.5V8.559H4.786Z" transform="translate(0 8.265)"/><path class="c" d="M14.214,15.078H9.377a1.87,1.87,0,0,1-1.87-1.87V8.486a1.871,1.871,0,0,1,1.87-1.873h4.837a1.871,1.871,0,0,1,1.87,1.873v4.722a1.87,1.87,0,0,1-1.87,1.87" transform="translate(16.446 14.487)"/><path class="c" d="M14.214,18.29H9.377a1.87,1.87,0,0,1-1.87-1.87V11.7a1.868,1.868,0,0,1,1.87-1.87h4.837a1.868,1.868,0,0,1,1.87,1.87V16.42a1.87,1.87,0,0,1-1.87,1.87" transform="translate(16.446 21.53)"/><path class="c" d="M10.805,18.29H5.968A1.87,1.87,0,0,1,4.1,16.42V11.7a1.868,1.868,0,0,1,1.87-1.87h4.837a1.868,1.868,0,0,1,1.87,1.87V16.42a1.87,1.87,0,0,1-1.87,1.87" transform="translate(8.978 21.53)"/><path class="c" d="M10.805,15.078H5.968a1.87,1.87,0,0,1-1.87-1.87V8.486a1.871,1.871,0,0,1,1.87-1.873h4.837a1.871,1.871,0,0,1,1.87,1.873v4.722a1.87,1.87,0,0,1-1.87,1.87" transform="translate(8.978 14.487)"/></g></g></svg>