<svg xmlns="http://www.w3.org/2000/svg" xmlns:xlink="http://www.w3.org/1999/xlink" width="43.487" height="21.758" viewBox="0 0 43.487 21.758"><defs><style>.a{fill:none;}.b{clip-path:url(#a);}.c{fill:#555;}.d{fill:#bababa;}.e{fill:#fff;}</style><clipPath id="a"><rect class="a" width="43.487" height="21.758" transform="translate(0 0)"/></clipPath></defs><g transform="translate(0 0)"><g class="b"><path class="c" d="M32.505,20.758H10.983A9.879,9.879,0,1,1,10.777,1c.069,0,.137,0,.206,0H32.505a9.879,9.879,0,1,1,.2,19.757c-.069,0-.137,0-.2,0"/><path class="d" d="M10.866,21.759A10.879,10.879,0,0,1,3.107,3.268,10.8,10.8,0,0,1,10.766,0H32.505a10.879,10.879,0,0,1,.216,21.757H10.866M10.784,2A8.879,8.879,0,0,0,4.667,17.223a8.821,8.821,0,0,0,6.209,2.536H32.7A8.879,8.879,0,1,0,32.515,2Z"/><path class="d" d="M11.637,4.355a6.525,6.525,0,1,0,6.524,6.525,6.525,6.525,0,0,0-6.524-6.525"/><path class="e" d="M30.691,14.646a3.873,3.873,0,0,1-1.321-7.51.249.249,0,0,1,.281.052.267.267,0,0,1,.049.3,3.293,3.293,0,0,0,.541,3.173,3.343,3.343,0,0,0,3.7,1.111.471.471,0,0,1,.2-.029.244.244,0,0,1,.194.286.257.257,0,0,1-.02.059,3.8,3.8,0,0,1-2.949,2.481c-.224.045-.455.054-.682.079"/></g></g></svg>