<svg xmlns="http://www.w3.org/2000/svg" xmlns:xlink="http://www.w3.org/1999/xlink" width="52.989" height="51.923" viewBox="0 0 52.989 51.923"><defs><style>.a{fill:none;}.b{clip-path:url(#a);}.c{fill:#58595b;}</style><clipPath id="a"><rect class="a" width="52.989" height="51.923"/></clipPath></defs><g class="b"><path class="c" d="M30.339,24.376H10.711a2.606,2.606,0,0,1-2.6-2.6V2.6a2.606,2.606,0,0,1,2.6-2.6H30.339a2.606,2.606,0,0,1,2.6,2.6V21.771a2.606,2.606,0,0,1-2.6,2.6M13.315,19.167H27.735V5.209H13.315Z" transform="translate(20.045 0.001)"/><path class="c" d="M30.339,32.308H10.711a2.606,2.606,0,0,1-2.6-2.6V10.537a2.606,2.606,0,0,1,2.6-2.6H30.339a2.606,2.606,0,0,1,2.6,2.6V29.7a2.606,2.606,0,0,1-2.6,2.6M13.315,27.1H27.735V13.141H13.315Z" transform="translate(20.045 19.616)"/><path class="c" d="M22.233,32.308H2.6A2.606,2.606,0,0,1,0,29.7V10.537a2.606,2.606,0,0,1,2.6-2.6H22.233a2.606,2.606,0,0,1,2.6,2.6V29.7a2.606,2.606,0,0,1-2.6,2.6M5.209,27.1H19.629V13.141H5.209Z" transform="translate(0 19.616)"/><path class="c" d="M22.233,24.376H2.6a2.606,2.606,0,0,1-2.6-2.6V2.6A2.606,2.606,0,0,1,2.6,0H22.233a2.606,2.606,0,0,1,2.6,2.6V21.771a2.606,2.606,0,0,1-2.6,2.6M5.209,19.167H19.629V5.209H5.209Z" transform="translate(0 0.001)"/></g></svg>