<svg xmlns="http://www.w3.org/2000/svg" xmlns:xlink="http://www.w3.org/1999/xlink" width="38.874" height="36.901" viewBox="0 0 38.874 36.901"><defs><style>.a{fill:#707070;}.b{clip-path:url(#a);}</style><clipPath id="a"><rect class="a" width="38.874" height="36.901"/></clipPath></defs><g class="b"><path class="a" d="M2,6.142H20.633a5.316,5.316,0,0,0,10.5,0h7.808a.827.827,0,1,0,0-1.653H31.136a5.316,5.316,0,0,0-10.5,0H2A.827.827,0,0,0,2,6.142M25.884,1.653a3.663,3.663,0,1,1-3.663,3.663,3.667,3.667,0,0,1,3.663-3.663" transform="translate(-0.896)"/><path class="a" d="M38.944,60.108H15.1a5.316,5.316,0,0,0-10.5,0H2a.827.827,0,1,0,0,1.653H4.6a5.316,5.316,0,0,0,10.5,0H38.944a.827.827,0,1,0,0-1.653M9.849,64.6a3.663,3.663,0,1,1,3.663-3.663A3.667,3.667,0,0,1,9.849,64.6" transform="translate(-0.896 -42.484)"/><path class="a" d="M37.771,115.727H22.017a5.316,5.316,0,0,0-10.5,0H.827a.827.827,0,1,0,0,1.653H11.514a5.316,5.316,0,0,0,10.5,0H37.771a.827.827,0,0,0,0-1.653m-21.005,4.489a3.663,3.663,0,1,1,3.663-3.663,3.667,3.667,0,0,1-3.663,3.663" transform="translate(0 -84.969)"/></g></svg>