<svg xmlns="http://www.w3.org/2000/svg" xmlns:xlink="http://www.w3.org/1999/xlink" width="35.584" height="34.844" viewBox="0 0 35.584 34.844"><defs><style>.a{fill:#707070;}.b{clip-path:url(#a);}</style><clipPath id="a"><rect class="a" width="35.584" height="34.844"/></clipPath></defs><g transform="translate(0 0)"><g class="b" transform="translate(0 0)"><path class="a" d="M36.918,15.781H17.437a1.259,1.259,0,0,1-1.259-1.259V1.259A1.259,1.259,0,0,1,17.437,0H36.918a1.259,1.259,0,0,1,1.259,1.259V14.522a1.259,1.259,0,0,1-1.259,1.259M18.7,13.262H35.66V2.52H18.7Z" transform="translate(-2.594 0)"/><path class="a" d="M39.12,38.485H31.17a1.259,1.259,0,0,1-1.259-1.259V23.963A1.259,1.259,0,0,1,31.17,22.7h7.95a1.259,1.259,0,0,1,1.259,1.259V37.225a1.259,1.259,0,0,1-1.259,1.259m-6.69-2.519h5.432V25.223H32.43Z" transform="translate(-4.796 -3.64)"/><path class="a" d="M21.52,38.485H1.259A1.259,1.259,0,0,1,0,37.225V23.963A1.259,1.259,0,0,1,1.259,22.7H21.52a1.259,1.259,0,0,1,1.259,1.259V37.225a1.259,1.259,0,0,1-1.259,1.259m-19-2.519H20.26V25.223H2.519Z" transform="translate(0 -3.64)"/><path class="a" d="M7.037,11.781H4.969A4.974,4.974,0,0,1,0,6.813V4.968A4.974,4.974,0,0,1,4.969,0H7.037a4.974,4.974,0,0,1,4.969,4.968V6.813a4.974,4.974,0,0,1-4.969,4.968M4.969,2.519a2.452,2.452,0,0,0-2.45,2.449V6.813a2.452,2.452,0,0,0,2.45,2.449H7.037a2.452,2.452,0,0,0,2.45-2.449V4.968a2.453,2.453,0,0,0-2.45-2.449Z" transform="translate(0 0)"/><path class="a" d="M10.737,18.314H1.274a1.259,1.259,0,1,1,0-2.519h9.462a1.259,1.259,0,0,1,0,2.519" transform="translate(-0.002 -2.532)"/></g></g></svg>