<svg xmlns="http://www.w3.org/2000/svg" xmlns:xlink="http://www.w3.org/1999/xlink" width="42.905" height="49.02" viewBox="0 0 42.905 49.02"><defs><style>.a{fill:none;}.b{clip-path:url(#a);}.c{fill:#58595b;}</style><clipPath id="a"><rect class="a" width="42.905" height="49.02"/></clipPath></defs><g transform="translate(0 0)"><g class="b" transform="translate(0 0)"><path class="c" d="M16.508,28.776a14.388,14.388,0,1,1,14.36-14.39,14.391,14.391,0,0,1-14.36,14.39m0-23.823a9.435,9.435,0,1,0,9.407,9.434,9.432,9.432,0,0,0-9.407-9.434" transform="translate(4.944 0.001)"/><path class="c" d="M40.428,34.182H2.476A2.477,2.477,0,0,1,0,31.706V26.479A21.446,21.446,0,0,1,13.178,6.641a2.47,2.47,0,0,1,2.486.333,9.469,9.469,0,0,0,11.573,0,2.462,2.462,0,0,1,2.486-.333A21.453,21.453,0,0,1,42.9,26.479v5.227a2.477,2.477,0,0,1-2.476,2.476M4.953,29.229h33v-2.75a16.519,16.519,0,0,0-8.935-14.71,14.462,14.462,0,0,1-15.133,0,16.516,16.516,0,0,0-8.932,14.71Z" transform="translate(0 14.839)"/></g></g></svg>