<svg xmlns="http://www.w3.org/2000/svg" width="1233" height="961.131" viewBox="0 0 1233 961.131"><defs><style>.a{fill:#fff;}.b,.c{stroke:none;}.c{fill:#b5b5b5;}</style></defs><g class="a" transform="translate(0 113.002)"><path class="b" d="M 1218.988647460938 847.6292114257812 L 14.01138496398926 847.6292114257812 C 6.561230659484863 847.6292114257812 0.5 838.86279296875 0.5 828.0872192382812 L 0.5 280.2667541503906 L 0.5 -109.2004165649414 L 1232.5 -112.5005035400391 L 1232.5 280.2667541503906 L 1232.5 828.0872192382812 C 1232.5 838.86279296875 1226.438720703125 847.6292114257812 1218.988647460938 847.6292114257812 Z"/><path class="c" d="M 1232 -111.9991455078125 L 1 -108.7017211914062 L 1 828.0872192382812 C 1 833.237548828125 2.3934326171875 838.0670776367188 4.92333984375 841.6861572265625 C 7.377197265625 845.1961669921875 10.604736328125 847.1292114257812 14.0113525390625 847.1292114257812 L 1218.988647460938 847.1292114257812 C 1222.395263671875 847.1292114257812 1225.622802734375 845.1961669921875 1228.07666015625 841.6861572265625 C 1230.606567382812 838.0670776367188 1232 833.237548828125 1232 828.0872192382812 L 1232 -111.9991455078125 M 1233 -113.0018310546875 C 1233 -113.0018310546875 1233 269.1978454589844 1233 280.2667541503906 L 1233 828.0872192382812 C 1233 839.1561279296875 1226.726928710938 848.1292114257812 1218.988647460938 848.1292114257812 L 14.0113525390625 848.1292114257812 C 6.2730712890625 848.1292114257812 0 839.1561279296875 0 828.0872192382812 L 0 280.2667541503906 C 0 269.1978454589844 0 -109.6990966796875 0 -109.6990966796875 L 1233 -113.0018310546875 Z"/></g></svg>