<svg xmlns="http://www.w3.org/2000/svg" xmlns:xlink="http://www.w3.org/1999/xlink" width="164.37" height="59.811" viewBox="0 0 164.37 59.811"><defs><style>.a{fill:none;}.b{fill:#464749;}.c{clip-path:url(#a);}.d{fill:#aa0720;}</style><clipPath id="a"><rect class="a" width="164.37" height="59.811"/></clipPath></defs><g transform="translate(0 0)"><path class="b" d="M19.81,0,0,0,19.81,19.816Z" transform="translate(0)"/><g transform="translate(0 0)"><g class="c"><path class="d" d="M0,34.186C0,48.339,11.967,59.811,26.731,59.811S53.462,48.339,53.464,34.187V0H26.739l0,36.54L0,9.8Z"/><path class="b" d="M111.862,42.29a9.363,9.363,0,0,1-2.065,3.166,9.651,9.651,0,0,1-3.146,2.084,10.629,10.629,0,0,1-7.9,0,9.648,9.648,0,0,1-3.146-2.084,9.359,9.359,0,0,1-2.063-3.166,10.627,10.627,0,0,1-.742-4.008V21.049h4.048V37.161a16.336,16.336,0,0,0,.181,2.785,5.72,5.72,0,0,0,.662,1.823,5.044,5.044,0,0,0,2.063,2,6.342,6.342,0,0,0,5.87,0,5.025,5.025,0,0,0,2.085-2,5.739,5.739,0,0,0,.662-1.823,16.418,16.418,0,0,0,.181-2.785V21.049H112.6V38.282a10.657,10.657,0,0,1-.74,4.008" transform="translate(-19.529 -4.429)"/><path class="b" d="M132.029,28.584V47.3H127.98V18.765l19.479,20.36V20.569h4.047V48.943Z" transform="translate(-26.932 -3.949)"/><rect class="b" width="4.048" height="26.731" transform="translate(132.59 16.62)"/><path class="b" d="M195.386,48.172a13.794,13.794,0,0,1-13.907-13.907,12.975,12.975,0,0,1,1.123-5.33,14.5,14.5,0,0,1,3.005-4.408,14.222,14.222,0,0,1,4.409-2.987,13.3,13.3,0,0,1,5.37-1.1,18.192,18.192,0,0,1,1.985.1,10.715,10.715,0,0,1,1.743.341,12.408,12.408,0,0,1,1.684.621q.841.381,1.762.9v4.768a18.149,18.149,0,0,0-1.843-1.36,9.926,9.926,0,0,0-1.764-.9,9.639,9.639,0,0,0-1.823-.5,12.186,12.186,0,0,0-2.024-.16,8.77,8.77,0,0,0-3.706.8,9.752,9.752,0,0,0-3.047,2.183,10.508,10.508,0,0,0-2.063,3.225,10.559,10.559,0,0,0,0,7.877,9.885,9.885,0,0,0,2.083,3.165,9.485,9.485,0,0,0,3.148,2.1,10.147,10.147,0,0,0,3.946.761,8.727,8.727,0,0,0,3.506-.7,15.1,15.1,0,0,0,3.587-2.346V46.21a14.59,14.59,0,0,1-7.174,1.963" transform="translate(-38.19 -4.301)"/></g></g></g></svg>