<svg xmlns="http://www.w3.org/2000/svg" xmlns:xlink="http://www.w3.org/1999/xlink" width="115.371" height="135" viewBox="0 0 115.371 135"><defs><style>.a{fill:none;}.b{fill:#464749;}.c{clip-path:url(#a);}.d{fill:#aa0720;}</style><clipPath id="a"><rect class="a" width="115.371" height="135"/></clipPath></defs><path class="b" d="M48.919,0,23.83.005,48.919,25.1Z"/><g class="c"><path class="d" d="M23.83,42.719c0,17.69,15.154,32.026,33.854,32.026S91.539,60.408,91.543,42.724V0H57.695l0,45.664L23.83,12.248Z" transform="translate(0 0)"/><path class="b" d="M24.135,127.426a11.629,11.629,0,0,1-2.615,3.957,12.207,12.207,0,0,1-3.983,2.6,13.031,13.031,0,0,1-5,.95,13.038,13.038,0,0,1-5-.95,12.263,12.263,0,0,1-3.986-2.6A11.678,11.678,0,0,1,.94,127.426,13.125,13.125,0,0,1,0,122.417V100.881H5.127v20.135a19.947,19.947,0,0,0,.229,3.48,7,7,0,0,0,.838,2.278,6.357,6.357,0,0,0,2.611,2.505,8.133,8.133,0,0,0,7.437,0,6.339,6.339,0,0,0,2.641-2.505,7.061,7.061,0,0,0,.836-2.278,20.231,20.231,0,0,0,.23-3.48V100.881h5.123v21.536a13.124,13.124,0,0,1-.937,5.009" transform="translate(0 -1.34)"/><path class="b" d="M40.3,110.868v23.388H35.176V98.6l24.67,25.443V100.85h5.125V136.31Z" transform="translate(0 -1.31)"/><rect class="b" width="5.129" height="33.405" transform="translate(75.121 99.54)"/><path class="b" d="M106.285,134.929a17.74,17.74,0,0,1-6.926-1.351,17.492,17.492,0,0,1-5.584-3.683,17.27,17.27,0,0,1-5.1-12.345,16.03,16.03,0,0,1,1.424-6.66,17.874,17.874,0,0,1,9.388-9.242,17.047,17.047,0,0,1,6.8-1.377,23.386,23.386,0,0,1,2.516.125,13.56,13.56,0,0,1,2.2.426,15.523,15.523,0,0,1,2.133.777q1.068.477,2.232,1.127v5.959a22.556,22.556,0,0,0-2.334-1.7,12.5,12.5,0,0,0-2.234-1.128,12.246,12.246,0,0,0-2.307-.627,15.643,15.643,0,0,0-2.565-.2,11.242,11.242,0,0,0-4.695,1,12.355,12.355,0,0,0-3.857,2.729,13.122,13.122,0,0,0-2.614,4.031,13.043,13.043,0,0,0,0,9.842,12.353,12.353,0,0,0,2.639,3.957,12.006,12.006,0,0,0,3.985,2.631,13.017,13.017,0,0,0,5,.95,11.2,11.2,0,0,0,4.443-.875,19.173,19.173,0,0,0,4.541-2.932v6.112a18.658,18.658,0,0,1-9.086,2.453" transform="translate(0 -1.332)"/></g></svg>