<svg xmlns="http://www.w3.org/2000/svg" xmlns:xlink="http://www.w3.org/1999/xlink" width="1571.593" height="397.441" viewBox="0 0 1571.593 397.441"><defs><style>.a{fill:#f0f0f0;}.b,.c{stroke:none;}.c{fill:#707070;}.d{filter:url(#a);}</style><filter id="a" x="0" y="0" width="1571.593" height="397.441" filterUnits="userSpaceOnUse"><feOffset input="SourceAlpha"/><feGaussianBlur stdDeviation="3" result="b"/><feFlood flood-opacity="0.161"/><feComposite operator="in" in2="b"/><feComposite in="SourceGraphic"/></filter></defs><g class="d" transform="matrix(1, 0, 0, 1, 0, 0)"><g class="a" transform="translate(1562.59 9) rotate(90)"><path class="b" d="M 378.9346618652344 1553.09326171875 L 39.50139617919922 1553.09326171875 L 8.541768074035645 1553.09326171875 L 0.4999963045120239 31.21603012084961 C 0.4999963045120239 27.07183074951172 1.318196296691895 23.04943084716797 2.93199634552002 19.26303100585938 C 4.490996360778809 15.60523128509521 6.722796440124512 12.32003116607666 9.5657958984375 9.498630523681641 C 12.40899658203125 6.67703104019165 15.7197961807251 4.461831092834473 19.40619659423828 2.914430856704712 C 23.2227954864502 1.312430858612061 27.27719688415527 0.5000308752059937 31.45719718933105 0.5000308752059937 L 370.8967895507812 0.5000308752059937 L 370.8967895507812 31.21863174438477 L 370.8967895507812 913.3924560546875 C 370.8967895507812 930.2296752929688 378.6656188964844 1532.2490234375 378.9346618652344 1553.09326171875 Z"/><path class="c" d="M 31.45718383789062 1 C 27.34420776367188 1 23.35458374023438 1.7991943359375 19.599609375 3.37548828125 C 15.97280883789062 4.8978271484375 12.71539306640625 7.0772705078125 9.917999267578125 9.8533935546875 C 7.121185302734375 12.6290283203125 4.925384521484375 15.86083984375 3.391998291015625 19.4588623046875 C 1.805389404296875 23.181640625 1.000579833984375 27.136474609375 1 31.2132568359375 L 9.039154052734375 1552.59326171875 L 378.4281311035156 1552.59326171875 C 378.0603637695312 1524.096435546875 370.3967895507812 930.1183471679688 370.3967895507812 913.3922119140625 L 370.3967895507812 1 L 31.45718383789062 1 M 31.45718383789062 0 L 371.3967895507812 0 C 371.3967895507812 0 371.3967895507812 13.976806640625 371.3967895507812 31.2183837890625 L 371.3967895507812 913.3922119140625 C 371.3967895507812 930.6338500976562 379.4411926269531 1553.59326171875 379.4411926269531 1553.59326171875 L 39.50140380859375 1553.59326171875 C 22.12820434570312 1553.59326171875 8.044403076171875 1553.59326171875 8.044403076171875 1553.59326171875 L 0 31.2183837890625 C 0 13.976806640625 14.08380126953125 0 31.45718383789062 0 Z"/></g></g></svg>