<svg xmlns="http://www.w3.org/2000/svg" xmlns:xlink="http://www.w3.org/1999/xlink" width="389.397" height="972.406" viewBox="0 0 389.397 972.406"><defs><style>.a{fill:#f0f0f0;}.b,.c{stroke:none;}.c{fill:#707070;}.d{filter:url(#a);}</style><filter id="a" x="0" y="0" width="389.397" height="972.406" filterUnits="userSpaceOnUse"><feOffset input="SourceAlpha"/><feGaussianBlur stdDeviation="3" result="b"/><feFlood flood-opacity="0.161"/><feComposite operator="in" in2="b"/><feComposite in="SourceGraphic"/></filter></defs><g class="d" transform="matrix(1, 0, 0, 1, 0, 0)"><g class="a" transform="translate(9 9)"><path class="b" d="M 370.8968811035156 953.9063110351562 L 31.45713043212891 953.9063110351562 L 0.4999547004699707 953.9063110351562 L 0.4999547004699707 31.54218292236328 C 0.4999547004699707 27.35112571716309 1.318425297737122 23.28571319580078 2.932660579681396 19.45888900756836 C 4.491954803466797 15.76241874694824 6.724307537078857 12.44265460968018 9.567602157592773 9.591595649719238 C 12.4107780456543 6.740654468536377 15.72160148620605 4.502536773681641 19.4078369140625 2.939125061035156 C 23.22395515441895 1.320654392242432 27.2778377532959 0.5000661611557007 31.45713043212891 0.5000661611557007 L 370.8968811035156 0.5000661611557007 L 370.8968811035156 31.54218292236328 L 370.8968811035156 922.8640747070312 L 370.8968811035156 953.9063110351562 Z"/><path class="c" d="M 31.45712280273438 0.99993896484375 C 27.34536743164062 0.99993896484375 23.35702514648438 1.8072509765625 19.60302734375 3.39935302734375 C 15.9764404296875 4.9373779296875 12.7191162109375 7.13958740234375 9.921600341796875 9.94464111328125 C 7.12396240234375 12.74981689453125 4.927490234375 16.01629638671875 3.39337158203125 19.65325927734375 C 1.80523681640625 23.418212890625 0.999969482421875 27.41827392578125 0.999969482421875 31.54217529296875 L 0.999969482421875 953.4061889648438 L 370.3968811035156 953.4061889648438 L 370.3968811035156 0.99993896484375 L 31.45712280273438 0.99993896484375 M 31.45712280273438 -6.103515625e-05 L 371.3968811035156 -6.103515625e-05 C 371.3968811035156 -6.103515625e-05 371.3968811035156 14.1219482421875 371.3968811035156 31.54217529296875 L 371.3968811035156 922.8639526367188 C 371.3968811035156 940.2843017578125 371.3968811035156 954.4061889648438 371.3968811035156 954.4061889648438 L 31.45712280273438 954.4061889648438 C 14.08383178710938 954.4061889648438 -3.0517578125e-05 954.4061889648438 -3.0517578125e-05 954.4061889648438 L -3.0517578125e-05 31.54217529296875 C -3.0517578125e-05 14.1219482421875 14.08383178710938 -6.103515625e-05 31.45712280273438 -6.103515625e-05 Z"/></g></g></svg>