<?xml version="1.0" standalone="no"?>
<!DOCTYPE svg PUBLIC "-//W3C//DTD SVG 20010904//EN"
 "http://www.w3.org/TR/2001/REC-SVG-20010904/DTD/svg10.dtd">
<svg version="1.0" xmlns="http://www.w3.org/2000/svg"
 width="1080.000000pt" height="1080.000000pt" viewBox="0 0 1080.000000 1080.000000"
 preserveAspectRatio="xMidYMid meet">
<metadata>
Created by potrace 1.14, written by Peter Selinger 2001-2017
</metadata>
<g transform="translate(0.000000,1080.000000) scale(0.100000,-0.100000)"
fill="#000000" stroke="none">
<path d="M3695 9800 c550 -549 1002 -995 1005 -991 3 5 5 454 4 998 l0 988
-1004 2 -1004 3 999 -1000z"/>
<path d="M5408 10793 c-3 -5 -4 -822 -3 -1818 1 -995 0 -1813 -2 -1816 -1 -4
-105 95 -230 218 -126 124 -470 464 -767 756 -296 293 -632 624 -746 737 -114
113 -370 365 -568 560 -198 195 -368 363 -378 372 -19 16 -19 -13 -18 -1255 1
-700 4 -1306 8 -1347 13 -138 20 -200 31 -252 11 -60 14 -74 19 -95 4 -13 8
-31 10 -41 25 -111 99 -325 147 -430 22 -45 39 -87 39 -92 0 -6 5 -10 10 -10
6 0 10 -8 10 -17 0 -10 9 -29 20 -43 11 -14 20 -31 20 -37 0 -7 5 -13 11 -13
5 0 8 -4 5 -9 -3 -5 1 -14 9 -21 8 -7 15 -17 15 -21 0 -5 16 -33 35 -62 20
-28 41 -60 48 -71 7 -10 18 -24 24 -32 7 -7 13 -15 13 -18 0 -3 6 -14 14 -23
8 -10 36 -45 63 -78 106 -134 246 -275 393 -396 75 -62 226 -169 238 -169 6 0
12 -4 14 -8 2 -4 30 -24 63 -44 240 -144 548 -268 804 -324 36 -8 75 -17 86
-19 11 -3 34 -7 50 -10 17 -2 46 -6 65 -9 78 -13 109 -17 185 -24 100 -9 448
-9 535 1 99 10 152 17 180 24 33 7 90 16 118 17 12 1 22 3 22 6 0 3 8 7 18 8
18 2 53 9 62 12 3 1 9 2 13 1 4 -1 16 3 26 8 10 6 32 13 49 16 39 7 237 74
322 109 36 15 116 53 179 84 145 73 165 84 171 92 3 4 15 10 28 14 12 4 22 12
22 17 0 5 4 9 9 9 5 0 37 19 72 43 34 23 71 49 83 56 11 8 44 34 73 58 28 24
54 43 57 43 26 0 317 300 406 419 14 18 31 39 38 46 6 8 12 18 12 24 0 6 5 11
10 11 6 0 10 5 10 11 0 6 6 17 13 24 25 29 37 44 37 49 0 3 13 24 29 48 25 38
69 115 107 188 13 25 59 127 87 190 39 88 121 360 133 440 2 14 5 34 8 46 2
12 7 45 11 75 4 30 9 57 11 60 13 23 17 404 18 1944 1 963 0 1756 -2 1763 -3
9 -283 12 -1352 12 -742 0 -1350 -3 -1352 -7z"/>
<path d="M3604 1587 l0 -1423 203 0 c112 0 204 3 204 6 1 3 3 421 4 930 1 509
3 926 4 928 0 2 20 -16 42 -40 39 -41 374 -386 579 -598 143 -148 556 -573
630 -650 123 -127 555 -572 632 -651 42 -43 79 -79 82 -79 2 0 3 636 3 1413
l-2 1412 -202 1 c-199 1 -203 0 -204 -20 0 -12 -1 -427 -1 -924 -1 -812 -2
-901 -16 -890 -15 12 -126 125 -302 307 -41 43 -184 190 -317 327 -133 137
-287 296 -343 354 -55 58 -201 208 -323 334 -122 125 -265 272 -317 326 -52
54 -152 157 -222 229 -70 72 -129 131 -131 131 -1 0 -3 -640 -3 -1423z"/>
<path d="M9175 2881 c-3 -2 -24 -5 -47 -7 -60 -4 -179 -30 -270 -59 -300 -97
-577 -311 -751 -581 -84 -131 -175 -343 -191 -448 -4 -21 -8 -41 -10 -45 -8
-13 -20 -155 -20 -241 0 -103 12 -222 29 -295 34 -149 121 -364 175 -433 11
-13 20 -30 20 -38 0 -7 3 -14 8 -16 4 -2 25 -27 46 -55 21 -29 42 -53 47 -53
5 0 9 -5 9 -12 0 -32 240 -234 343 -288 26 -14 47 -28 47 -32 0 -5 4 -8 10 -8
5 0 38 -13 72 -28 53 -24 100 -42 218 -80 22 -7 31 -9 69 -17 19 -3 37 -7 40
-9 25 -15 402 -30 426 -17 11 6 11 6 80 14 114 14 350 93 450 151 l40 23 3
241 c1 133 0 242 -3 242 -3 0 -11 -5 -18 -10 -7 -6 -23 -20 -37 -32 -42 -35
-181 -124 -247 -157 -79 -39 -195 -78 -253 -85 -25 -2 -45 -5 -45 -6 0 -7
-209 -5 -250 2 -78 13 -99 17 -115 21 -8 2 -28 7 -45 11 -70 17 -275 113 -275
128 0 4 -7 8 -15 8 -8 0 -15 4 -15 8 0 4 -12 15 -27 24 -41 24 -147 135 -190
198 -21 30 -40 57 -43 60 -9 9 -69 134 -72 150 -2 8 -6 17 -10 20 -4 3 -9 15
-11 25 -2 11 -7 27 -10 35 -3 8 -8 26 -10 40 -3 14 -8 36 -11 50 -19 75 -25
233 -13 340 3 30 6 55 7 55 2 0 3 8 13 55 3 14 13 50 22 80 10 30 17 57 18 60
1 16 95 182 130 229 49 66 156 176 212 216 22 16 42 31 45 34 3 4 37 22 75 41
39 19 73 40 77 45 4 6 8 6 8 1 0 -5 6 -4 13 2 6 5 46 19 87 30 330 89 682 10
956 -214 23 -19 44 -34 48 -34 3 0 5 106 4 236 l-3 236 -93 48 c-91 46 -247
105 -305 114 -15 3 -35 7 -45 10 -48 14 -385 29 -397 17z"/>
<path d="M790 1915 c0 -520 4 -936 10 -955 5 -19 11 -51 14 -70 17 -116 83
-270 161 -375 64 -88 218 -235 245 -235 5 0 15 -6 22 -13 24 -24 190 -98 253
-113 11 -3 25 -6 30 -8 15 -4 76 -17 110 -22 17 -3 84 -6 150 -7 127 -1 181 5
275 28 11 3 28 7 38 9 9 2 31 9 47 16 17 6 31 11 33 11 5 -2 148 73 186 97 54
36 71 49 124 100 25 23 49 42 53 42 5 0 9 4 9 9 0 5 6 16 13 23 25 26 85 114
114 168 26 49 75 169 79 195 1 6 7 28 13 50 22 82 24 180 25 1066 l1 905 -200
-1 c-110 -1 -202 -3 -205 -4 -3 0 -5 -391 -5 -868 0 -478 -3 -895 -8 -928 -4
-33 -10 -76 -12 -95 -9 -73 -71 -199 -131 -265 -48 -53 -194 -149 -194 -129 0
4 -9 -1 -20 -11 -11 -10 -20 -15 -20 -12 0 4 -11 2 -24 -3 -66 -25 -293 -33
-319 -11 -8 6 -16 9 -19 6 -2 -3 -29 4 -59 14 -162 57 -265 159 -340 336 -12
28 -26 115 -34 208 -2 32 -7 63 -11 69 -4 6 -3 8 3 5 7 -5 8 4 3 28 -4 19 -4
35 1 35 5 0 5 10 0 23 -5 12 -5 31 -1 42 4 11 3 28 -2 38 -5 9 -5 17 0 17 10
0 9 30 -1 47 -4 6 -3 14 3 18 6 4 7 12 1 23 -5 9 -5 26 0 40 6 17 6 21 -3 16
-7 -4 -8 -3 -4 4 10 16 13 93 4 98 -4 3 -3 16 2 29 5 14 6 25 1 25 -5 0 -5 18
-1 40 4 23 3 40 -2 40 -5 0 -6 4 -3 10 10 16 12 91 2 97 -4 2 -3 11 3 18 8 10
8 15 0 20 -7 5 -8 11 -1 19 6 7 6 18 1 26 -4 7 -4 24 1 37 6 18 6 22 -3 17 -7
-4 -8 -3 -4 4 10 16 13 93 4 98 -4 3 -3 16 2 29 5 14 6 25 1 25 -5 0 -5 18 -1
40 4 23 3 40 -2 40 -5 0 -6 4 -3 10 10 16 12 91 2 97 -4 2 -3 11 3 18 8 10 8
15 0 20 -7 5 -8 11 -1 19 6 7 6 18 1 26 -4 7 -4 24 1 37 6 18 6 22 -3 17 -7
-4 -8 -3 -4 4 10 16 13 93 4 98 -4 3 -3 16 2 29 5 14 6 25 1 25 -5 0 -5 18 -1
40 4 22 4 40 -1 40 -5 0 -5 10 -1 23 9 27 8 69 -1 84 -4 6 -3 14 2 17 5 3 7
14 4 24 -4 17 -20 18 -209 18 l-204 0 0 -921z"/>
<path d="M6805 2830 c-7 -12 -9 -86 -2 -97 4 -7 3 -14 -2 -18 -6 -3 -7 -15 -2
-27 4 -12 5 -38 1 -59 -4 -20 -3 -44 2 -52 5 -9 4 -18 -1 -22 -6 -3 -7 -16 -3
-28 6 -20 7 -54 2 -82 -4 -26 -2 -104 4 -113 3 -6 2 -13 -3 -17 -6 -3 -7 -16
-3 -28 6 -20 7 -54 2 -82 -5 -27 -2 -154 4 -163 3 -6 2 -13 -3 -16 -4 -3 -6
-20 -4 -38 5 -35 6 -86 3 -103 -4 -22 -1 -107 4 -112 2 -3 1 -15 -3 -27 -5
-11 -5 -30 -1 -41 4 -11 3 -28 -2 -37 -5 -11 -5 -18 1 -18 6 0 6 -11 2 -28 -5
-15 -5 -37 0 -49 4 -12 4 -25 0 -27 -5 -3 -6 -20 -4 -38 5 -34 6 -86 3 -103
-4 -24 -2 -107 3 -112 3 -3 2 -15 -2 -27 -5 -11 -5 -30 -1 -41 4 -11 4 -29 0
-40 -4 -11 -4 -29 0 -40 4 -11 4 -29 0 -40 -4 -11 -4 -29 0 -40 4 -11 3 -28
-2 -37 -5 -11 -5 -18 1 -18 6 0 6 -11 2 -28 -5 -15 -5 -37 0 -49 4 -12 4 -25
0 -27 -5 -3 -6 -20 -4 -38 5 -34 6 -86 3 -103 -1 -5 -1 -32 0 -60 1 -50 1 -55
0 -97 0 -13 1 -34 3 -48 2 -14 1 -29 -1 -34 -7 -13 -5 -103 2 -114 3 -6 2 -13
-3 -17 -6 -3 -7 -16 -3 -28 6 -19 7 -58 2 -79 -2 -8 -2 -73 -1 -106 1 -16 16
-18 206 -18 l205 1 0 1336 0 1336 -201 -1 c-110 0 -202 -3 -204 -6z"/>
</g>
</svg>
